<?xml version="1.0" encoding="utf-8"?>
<!-- Generator: Adobe Illustrator 14.0.0, SVG Export Plug-In . SVG Version: 6.00 Build 43363)  -->
<!DOCTYPE svg PUBLIC "-//W3C//DTD SVG 1.1//EN" "http://www.w3.org/Graphics/SVG/1.1/DTD/svg11.dtd">
<svg version="1.1" id="Layer_1" xmlns="http://www.w3.org/2000/svg" xmlns:xlink="http://www.w3.org/1999/xlink" x="0px" y="0px"
	 width="550px" height="400px" viewBox="0 0 550 400" enable-background="new 0 0 550 400" xml:space="preserve">
<radialGradient id="SVGID_1_" cx="275" cy="200" r="347.013" gradientUnits="userSpaceOnUse">
	<stop  offset="0" style="stop-color:#FFFFFF"/>
	<stop  offset="0.6" style="stop-color:#FFFFFF"/>
	<stop  offset="1" style="stop-color:#D6D6D6"/>
</radialGradient>
<rect fill-rule="evenodd" clip-rule="evenodd" fill="url(#SVGID_1_)" width="550" height="400"/>
<g>
	<path fill-rule="evenodd" clip-rule="evenodd" d="M342.179,146.748c35.641,10.948,52.439,33.559,71.493,63.352
		c-16.217-11.103-33.498-25.148-53.974-24.405c14.457,22.557,25.239,29.824,6.435,54.455c-9.235,12.096-25.256,28.011-36.841,37.9
		c-23.598,20.143-56.396,43.086-88.633,43.573c-19.334,0.298-23.39-27.433-33.25-39.82l-30.312-31.656l-0.56-1.225
		c-5.846-12.857-9.009-3.949-14.028-17.15l-2.343-6.174l-0.328-8.7c-2.682-8.059-4.68-13.148-8.338-20.73
		c-2.586-5.37-5.572-7.636-4.192-11.05c0.725-1.783,3.063-3.914,6.387-6.911l69.085-121.855l-10.972,45.557
		c42.847-37.626,132.342-53.053,189.499-68.517c-31.751,19.131-65.862,40.166-83.965,72.466
		c33.273,0.167,71.934,6.024,106.545,10.484C394.048,122.3,366.865,128.377,342.179,146.748z"/>
	<path fill-rule="evenodd" clip-rule="evenodd" fill="#FF0000" d="M241.759,316.234c-16.384,0.244-21.04-25.132-31.554-37.697
		c-16.949-9.937-33.897-19.868-50.847-29.806c-5.846-12.857-11.686-25.714-17.531-38.571c6.137,4.972,12.274,9.937,18.406,14.902
		c-7.077-23.99-11.133-31.353-12.708-34.622c-2.766-5.729,2.408-9.646,8.325-7.452c19.286-34.189,38.572-68.378,57.857-102.563
		c-4.091,14.026-8.177,28.049-12.268,42.077c30.941-38.104,100.747-57.92,171.812-77.139
		c-25.387,15.292-53.914,34.536-67.497,63.991c30.389-0.589,62.531,4.091,92.041,7.886c-25.936,5.186-50.335,12.922-69.253,29.806
		c38.078,9.932,56.045,27.172,68.377,46.463c-15.776-9.836-31.559-19.231-47.336-14.903c23.229,37.983,37.603,42.997-24.983,96.424
		C301.24,294.975,272.475,315.766,241.759,316.234z"/>
	<path fill-rule="evenodd" clip-rule="evenodd" fill="#BD0000" d="M147.524,190.44c-2.766-5.729,2.408-9.646,8.325-7.452
		c19.286-34.189,38.572-68.378,57.857-102.563c-4.091,14.026-8.177,28.049-12.268,42.077
		c30.941-38.104,100.747-57.92,171.812-77.139c-25.387,15.292-53.914,34.536-67.497,63.991c30.389-0.589,62.531,4.091,92.041,7.886
		c-25.936,5.186-50.335,12.922-69.253,29.806c38.078,9.932,56.045,27.172,68.377,46.463c-15.776-9.836-31.559-19.231-47.336-14.903
		c23.229,37.983,37.603,42.997-24.983,96.424c-22.474,19.19-51.679,40.749-82.841,41.206c15.129-0.231,29.199-6.339,42.342-14.903
		c3.116-39.903,3.408-32.261-11.222-58.736c5.989,0.73,11.983,1.462,17.972,2.193c-9.717-6.357-17.608-13.077-21.48-20.6
		c11.472-28.634,33.387-50.846,60.053-70.132c-94.301,15.546-112.843,43.329-130.856,40.165c-10.972-1.927-21.885-5.34-32.518-12.12
		c-0.672,1.589-1.344,3.188-2.016,4.782C158.11,184.689,144.759,184.712,147.524,190.44L147.524,190.44z M303.333,286.893
		c6.607-5.103,12.59-10.889,18.543-16.146c60.504-53.421,34.45-58.827,13.297-96.814c15.777-4.323,38.958,3.901,54.736,13.731
		c-12.328-19.287-36.135-27.963-74.218-37.889c18.917-16.884,44.096-27.356,70.03-32.535c-29.508-3.8-68.663,2.04-99.052,2.629
		c13.583-29.455,46.006-51.038,71.393-66.33c-71.06,19.224-133.08,49.939-164.028,88.042c4.092-14.023,5.846-24.936,9.938-38.962
		c-12.602,22.34-19.548,36.702-26.927,53.62c-5.073,11.634-12.721,17.354-1.226,25.09c7.166,4.824,14.249,8.351,22.354,9.777
		c18.014,3.164,36.948-21.503,131.249-37.049c-26.666,19.286-42.741,43.056-54.207,71.69c3.872,7.527,14.874,16.579,24.591,22.937
		c-5.988-0.731-13.148,0.095-19.137-0.637c10.472,18.948,12.143,17.579,12.232,30.015
		C292.962,285.513,292.766,295.034,303.333,286.893z"/>
	<path fill-rule="evenodd" clip-rule="evenodd" d="M241.776,317.751c-11.863,0.18-17.792-11.465-23.716-23.109
		c-2.771-5.453-5.548-10.907-8.861-14.934l-50.608-29.669l-0.619-0.683l-17.531-38.567l2.343-1.807l14.576,11.804
		c-5.626-18.363-9.099-25.404-10.764-28.782v-0.006l-0.434-0.893l-0.005-0.006c-0.755-1.569-1.017-3.063-0.881-4.396
		c0.149-1.497,0.797-2.782,1.791-3.77l0.006-0.006c0.963-0.952,2.254-1.617,3.729-1.909c1.32-0.262,2.795-0.231,4.335,0.155
		l2.683-4.752l0.874-1.553l1.392,1.107c6.274,4.983,12.667,8.593,19.125,11.238c6.464,2.646,13.023,4.349,19.618,5.507
		c6.477,1.137,13.346-2.176,24.514-7.563c50.251-26.678,106.973-29.872,106.973-29.872c-13.256,9.594-25.327,19.893-35.479,31.335
		c-9.979,11.239-18.132,23.597-23.787,37.478c1.849,3.378,4.561,6.606,7.902,9.717c3.599,3.342,10.141,8.813,14.939,11.948
		l-18.228-1.297c1.439,2.557,2.641,4.639,3.705,6.488c4.252,7.368,6.488,11.239,7.439,16.551c1.035,5.804,0.465,13.005-0.737,28.164
		l-0.666,8.498l-0.065,0.82l-0.737,0.398c-6.773,3.622-13.755,6.655-20.868,8.801C256.579,316.354,249.24,317.639,241.776,317.751z"
		/>
	<path fill-rule="evenodd" clip-rule="evenodd" d="M257.489,269.558c-10.116,8.438-21.261,17.182-32.773,23.651
		c-15.658,8.807-14.184,8.748-33.452,4.816l16.55-47.011l56.193,13.108L257.489,269.558z"/>
	<path fill-rule="evenodd" clip-rule="evenodd" fill="#FFCC00" d="M254.783,266.311c-13.036,10.877-23.604,18.417-32.137,23.211
		c-12.471,7.018-11.84,8.17-25.78,5.334c4.561-12.958,9.117-25.91,13.678-38.868C225.292,259.43,240.04,262.874,254.783,266.311z"/>
	<path fill-rule="evenodd" clip-rule="evenodd" fill="#D9AE00" d="M254.783,266.311c-13.036,10.877-23.604,18.417-32.137,23.211
		c-1.611,0.91-3.009,1.718-4.24,2.433h-0.006c23.562-17.591,18.703-21.189,11.436-23.604l19.476-3.318L254.783,266.311z"/>
	<path fill-rule="evenodd" clip-rule="evenodd" d="M201.094,214.69c12.239,5.942,24.603,11.657,36.806,17.657
		c4.591,2.254,14.416,6.856,17.698,10.723c7.618,8.974,9.336,13.368,10.533,24.103c-28.415,4.55-22.516,0.345-44.93,14.98
		c-20.326,13.273-40.843,26.071-61.633,38.607c-7.927,4.78-14.963,5.316-15.873-5.424c-0.268-3.177-0.196-6.494-0.262-9.688
		c-0.428-20.185,4.228-40.018,12.03-58.554l0.815-1.254c12.406-13.215,27.528-22.575,42.693-32.179L201.094,214.69z"/>
	<path fill-rule="evenodd" clip-rule="evenodd" fill="#FFCC00" d="M199.245,218.491c31.031,15.075,49.371,22.883,53.13,27.314
		c4.709,5.555,8.355,11.062,9.11,17.828c-39.137,6.263-6.453-5.364-104.101,53.505c-10.437,6.293-9.449,1.38-9.723-11.578
		c-0.375-17.627,3.122-36.448,11.698-56.829C171.063,236.26,185.174,227.406,199.245,218.491z"/>
	<path fill-rule="evenodd" clip-rule="evenodd" fill="#D9AE00" d="M199.245,218.491c31.031,15.075,49.371,22.883,53.13,27.314
		c4.709,5.555,8.355,11.062,9.11,17.828c-39.137,6.263-6.453-5.364-104.101,53.505c-3.692,2.23-5.958,3.052-7.35,2.611l3.497-8.95
		c0.327,7.909,11.501,0.345,23.853-8.909c15.629-11.703,36.354-30.8,53.398-40.154c13.69-7.516,14.028-11.631,10.002-15.104
		C228.503,236.054,213.362,227.715,199.245,218.491z"/>
	<path fill-rule="evenodd" clip-rule="evenodd" fill="#FFFFFF" d="M190.479,207.971c-9.057-11.395-20.451-17.53-34.188-18.411
		c4.995,20.189,14.891,30.514,21.825,30.674C181.219,220.305,184.674,216.451,190.479,207.971z"/>
	<path fill-rule="evenodd" clip-rule="evenodd" d="M183.901,200.983c-4.002-3.556-8.379-6.291-13.113-8.206
		c-0.981,2.318-1.57,5.239-1.57,8.409c0,7.516,3.289,13.612,7.344,13.612c4.056,0,7.345-6.097,7.345-13.612L183.901,200.983z"/>
	<path d="M178.418,194.983l0.006-0.007c2.243,1.404,4.407,3.027,6.483,4.871l0.505,0.452l0.012,0.672v0.201l0.005,0.014
		c0,4.007-0.898,7.671-2.337,10.348c-1.594,2.955-3.901,4.786-6.53,4.786c-2.628,0-4.935-1.831-6.529-4.786
		c-1.439-2.677-2.337-6.341-2.337-10.348c0-1.636,0.155-3.225,0.434-4.722c0.286-1.559,0.72-3.005,1.261-4.282l0.583-1.369
		l1.38,0.554C173.786,192.349,176.146,193.557,178.418,194.983z"/>
	<path fill-rule="evenodd" clip-rule="evenodd" fill="#FFFFFF" d="M183.331,200.483c-1.38-1.188-2.801-2.282-4.27-3.276
		c-0.779,0.719-1.291,1.987-1.291,3.432c0,2.242,1.243,4.062,2.784,4.062c1.534,0,2.783-1.819,2.783-4.062L183.331,200.483z"/>
	<path fill-rule="evenodd" clip-rule="evenodd" fill="#FFFFFF" d="M172.4,210.694c0.839,1.589,1.968,2.641,3.235,2.844
		c0.362-0.518,0.589-1.243,0.589-2.04c0-1.571-0.875-2.849-1.951-2.849C173.387,208.649,172.638,209.512,172.4,210.694z"/>
	<path fill-rule="evenodd" clip-rule="evenodd" fill="#FFFFFF" d="M221.159,206.657c13.131-18.513,34.022-28.142,60.046-32.168
		c-6.578,22.201-23.96,38.258-36.134,41.208C239.618,217.017,231.352,212.807,221.159,206.657z"/>
	<path fill-rule="evenodd" clip-rule="evenodd" d="M245.154,185.771c7.137-3.836,15.106-6.738,23.782-8.855
		c0.482,2.932,0.583,6.179,0.214,9.557c-1.273,11.656-7.642,20.435-14.213,19.595C248.806,205.296,244.655,196.423,245.154,185.771z
		"/>
	<path d="M270.435,176.673l-0.272-1.624l-1.583,0.393c-4.413,1.076-8.635,2.35-12.637,3.83c-4.026,1.492-7.868,3.205-11.507,5.162
		l-0.755,0.403l-0.042,0.862c-0.262,5.609,0.719,10.771,2.581,14.642c1.963,4.074,4.931,6.78,8.528,7.237l0.018,0.006l0.118,0.013
		h0.012c3.776,0.41,7.41-1.749,10.252-5.597c2.671-3.615,4.68-8.782,5.43-14.67l0.006-0.012l0.077-0.667v-0.018
		c0.185-1.719,0.256-3.419,0.22-5.061C270.846,179.867,270.69,178.226,270.435,176.673z"/>
	<path fill-rule="evenodd" clip-rule="evenodd" fill="#FFFFFF" d="M259.059,179.776c2.111-0.713,4.27-1.373,6.476-1.979
		c1.035,1.194,1.558,3.17,1.267,5.322c-0.452,3.354-2.712,5.881-5.05,5.644c-2.331-0.244-3.859-3.158-3.407-6.512
		C258.464,181.353,258.713,180.521,259.059,179.776z"/>
	<path fill-rule="evenodd" clip-rule="evenodd" fill="#FFFFFF" d="M255.77,204.854c-2.123,0.107-4.008-0.902-5.512-2.634
		C251.209,194.508,259.249,198.533,255.77,204.854z"/>
	<path fill-rule="evenodd" clip-rule="evenodd" d="M191.793,182.113c14.243-23.181,25.994-47.355,40.237-70.536
		c1.57-40.983,23.425-63.168,38.245-90.898C225.488,71.385,196.842,124.78,191.793,182.113z"/>
	<path fill-rule="evenodd" clip-rule="evenodd" fill="#FF5C5C" d="M306.943,76.752c-32.459,29.016-57.43,56.02-87.229,90.869
		C259.98,105.227,290.571,89.88,306.943,76.752z"/>
	<path fill-rule="evenodd" clip-rule="evenodd" d="M203.188,173.343c48.194-67.915,79.861-109.73,146.936-158.117
		C300.205,66.521,250.37,117.941,203.188,173.343z"/>
	<path fill-rule="evenodd" clip-rule="evenodd" d="M250.524,160.193c9.688-8.979,19.382-17.965,29.068-26.951
		c47.915-22.141,95.829-37.153,143.743-53.374C363.985,105.476,305.646,131.767,250.524,160.193z"/>
	<path fill-rule="evenodd" clip-rule="evenodd" d="M310.356,175.007c37.323,8.867,63.4,25.05,96.863,44.127
		C374.935,204.428,342.644,189.714,310.356,175.007z"/>
	<path fill-rule="evenodd" clip-rule="evenodd" fill="#D9AE00" d="M150.568,319.851L150.568,319.851
		c0.12,0.012,0.245,0.018,0.381,0.012c0.118-0.755,0.238-1.505,0.363-2.26c20.754-63.001,16.199-66.332,47.932-99.111
		c-2.979,2.337-5.798,4.722-8.296,7.226c2.551-2.23,5.311-4.621,8.296-7.226c-14.071,8.915-28.182,17.769-39.886,30.24
		c3.604-2.719,6.821-4.662,10.419-6.5c9.391-4.8,0.268,2.278-2.593,6.602c-1.575,2.372-2.955,4.864-4.181,7.569
		c-4.59,10.17-6.976,23.484-10.49,44.716c-3.455,20.873-3.645-5.395-4.157-11.377c-0.583,5.382-0.809,10.651-0.696,15.819
		c0.167,8.075-0.148,13.023,2.112,14.088l0,0C150.01,319.762,150.272,319.826,150.568,319.851z"/>
	<path fill-rule="evenodd" clip-rule="evenodd" d="M149.213,323.913c23.199-69.145,17.27-71.578,50.032-105.422
		c-18.965,16.544-26.101,25.673-32.149,39.077C161.042,270.979,156.069,288.665,149.213,323.913z"/>
	<path fill-rule="evenodd" clip-rule="evenodd" fill="#FFDE5C" d="M195.569,232.912c-15.718,9.296-22.95,22.705-29.598,61.141
		C175.837,270.545,184.662,248.077,195.569,232.912z"/>
	<polygon fill-rule="evenodd" clip-rule="evenodd" fill="#FF5C5C" points="264.886,157.755 304.606,135.942 344.325,122.704 	"/>
</g>
<g>
	<path d="M206.294,379.776l0.779,2.95c0.156,0.647,0.312,1.247,0.42,1.847h0.036c0.132-0.587,0.324-1.211,0.516-1.835l0.947-2.962
		h0.888l0.899,2.902c0.216,0.695,0.384,1.308,0.516,1.895h0.036c0.096-0.587,0.252-1.199,0.444-1.883l0.828-2.914h1.043
		l-1.871,5.805h-0.959l-0.888-2.771c-0.204-0.647-0.372-1.224-0.516-1.907h-0.024c-0.144,0.696-0.324,1.296-0.528,1.919
		l-0.936,2.759h-0.959l-1.751-5.805H206.294z"/>
	<path d="M215.27,379.776l0.779,2.95c0.156,0.647,0.312,1.247,0.42,1.847h0.036c0.132-0.587,0.324-1.211,0.516-1.835l0.947-2.962
		h0.888l0.899,2.902c0.216,0.695,0.384,1.308,0.516,1.895h0.036c0.096-0.587,0.252-1.199,0.444-1.883l0.828-2.914h1.043
		l-1.871,5.805h-0.959l-0.888-2.771c-0.204-0.647-0.372-1.224-0.516-1.907h-0.024c-0.144,0.696-0.324,1.296-0.528,1.919
		l-0.936,2.759h-0.959l-1.751-5.805H215.27z"/>
	<path d="M224.246,379.776l0.779,2.95c0.156,0.647,0.312,1.247,0.42,1.847h0.036c0.132-0.587,0.324-1.211,0.516-1.835l0.947-2.962
		h0.888l0.899,2.902c0.216,0.695,0.384,1.308,0.516,1.895h0.036c0.096-0.587,0.252-1.199,0.444-1.883l0.828-2.914h1.043
		l-1.871,5.805h-0.959l-0.888-2.771c-0.204-0.647-0.372-1.224-0.516-1.907h-0.024c-0.144,0.696-0.324,1.296-0.528,1.919
		l-0.936,2.759h-0.959l-1.751-5.805H224.246z"/>
	<path d="M231.938,384.957c0-0.432,0.3-0.755,0.72-0.755s0.708,0.312,0.708,0.755c0,0.433-0.288,0.756-0.731,0.756
		C232.226,385.713,231.938,385.39,231.938,384.957z"/>
	<path d="M234.71,385.581v-8.084h1.151l2.579,4.09c0.587,0.948,1.067,1.8,1.439,2.627l0.036-0.012
		c-0.096-1.08-0.12-2.063-0.12-3.322v-3.383h0.983v8.084h-1.055l-2.566-4.102c-0.564-0.899-1.104-1.823-1.5-2.698l-0.036,0.012
		c0.06,1.02,0.072,1.991,0.072,3.334v3.454H234.71z"/>
	<path d="M249.514,381.455c0,2.771-1.691,4.258-3.754,4.258c-2.147,0-3.634-1.667-3.634-4.113c0-2.567,1.583-4.246,3.742-4.246
		C248.086,377.354,249.514,379.045,249.514,381.455z M243.229,381.575c0,1.739,0.936,3.286,2.591,3.286
		c1.655,0,2.59-1.523,2.59-3.358c0-1.619-0.839-3.298-2.579-3.298S243.229,379.813,243.229,381.575z"/>
	<path d="M250.742,384.31c0.468,0.3,1.139,0.528,1.859,0.528c1.067,0,1.691-0.564,1.691-1.38c0-0.743-0.432-1.188-1.523-1.595
		c-1.319-0.479-2.135-1.176-2.135-2.303c0-1.26,1.043-2.195,2.615-2.195c0.815,0,1.427,0.192,1.775,0.396l-0.288,0.852
		c-0.252-0.156-0.792-0.384-1.523-0.384c-1.103,0-1.523,0.659-1.523,1.211c0,0.756,0.492,1.127,1.607,1.56
		c1.368,0.527,2.051,1.187,2.051,2.374c0,1.248-0.912,2.339-2.819,2.339c-0.779,0-1.631-0.24-2.063-0.527L250.742,384.31z"/>
	<path d="M256.79,377.497h1.043v3.898h0.036c0.216-0.312,0.432-0.6,0.636-0.863l2.471-3.035h1.295l-2.926,3.431l3.154,4.653h-1.235
		l-2.651-3.97l-0.779,0.888v3.082h-1.043V377.497z"/>
	<path d="M264.337,377.497v8.084h-1.056v-8.084H264.337z"/>
	<path d="M266.148,377.497h1.057v7.208h3.453v0.876h-4.51V377.497z"/>
	<path d="M271.813,377.497h1.057v7.208h3.453v0.876h-4.51V377.497z"/>
	<path d="M279.408,378.769h-0.023l-1.355,0.731l-0.205-0.803l1.703-0.912h0.9v7.796h-1.02V378.769z"/>
	<path d="M283.525,384.382c0.299,0.18,0.982,0.479,1.727,0.479c1.344,0,1.775-0.852,1.764-1.511c-0.013-1.092-0.996-1.56-2.016-1.56
		h-0.588V381H285c0.768,0,1.739-0.396,1.739-1.319c0-0.624-0.396-1.176-1.367-1.176c-0.624,0-1.224,0.276-1.56,0.516l-0.287-0.768
		c0.42-0.3,1.211-0.6,2.051-0.6c1.535,0,2.23,0.911,2.23,1.859c0,0.815-0.492,1.499-1.439,1.847v0.024
		c0.959,0.18,1.727,0.899,1.739,1.99c0,1.248-0.983,2.339-2.843,2.339c-0.875,0-1.643-0.275-2.026-0.527L283.525,384.382z"/>
	<path d="M292.691,385.581v-2.135h-3.623v-0.684l3.479-4.978h1.14v4.846h1.091v0.815h-1.091v2.135H292.691z M292.691,382.631v-2.603
		c0-0.408,0.012-0.815,0.035-1.224h-0.035c-0.24,0.456-0.432,0.792-0.648,1.151l-1.906,2.65v0.024H292.691z"/>
	<path d="M295.836,384.382c0.301,0.18,0.984,0.479,1.728,0.479c1.343,0,1.774-0.852,1.763-1.511c-0.012-1.092-0.995-1.56-2.015-1.56
		h-0.587V381h0.587c0.768,0,1.739-0.396,1.739-1.319c0-0.624-0.396-1.176-1.367-1.176c-0.623,0-1.224,0.276-1.559,0.516
		l-0.289-0.768c0.42-0.3,1.212-0.6,2.051-0.6c1.535,0,2.231,0.911,2.231,1.859c0,0.815-0.491,1.499-1.439,1.847v0.024
		c0.96,0.18,1.728,0.899,1.739,1.99c0,1.248-0.983,2.339-2.842,2.339c-0.876,0-1.644-0.275-2.027-0.527L295.836,384.382z"/>
	<path d="M301.824,384.957c0-0.432,0.3-0.755,0.72-0.755s0.708,0.312,0.708,0.755c0,0.433-0.288,0.756-0.732,0.756
		C302.112,385.713,301.824,385.39,301.824,384.957z"/>
	<path d="M308.697,385.377c-0.275,0.132-0.887,0.336-1.666,0.336c-1.752,0-2.891-1.188-2.891-2.962c0-1.787,1.223-3.095,3.118-3.095
		c0.624,0,1.175,0.156,1.463,0.312l-0.239,0.804c-0.252-0.132-0.648-0.275-1.224-0.275c-1.331,0-2.052,0.995-2.052,2.194
		c0,1.344,0.864,2.171,2.016,2.171c0.6,0,0.996-0.144,1.295-0.275L308.697,385.377z"/>
	<path d="M315.117,382.631c0,2.146-1.498,3.082-2.891,3.082c-1.559,0-2.781-1.151-2.781-2.986c0-1.931,1.283-3.07,2.877-3.07
		C313.99,379.656,315.117,380.867,315.117,382.631z M310.523,382.69c0,1.271,0.721,2.231,1.752,2.231
		c1.008,0,1.762-0.948,1.762-2.255c0-0.983-0.49-2.219-1.738-2.219C311.064,380.448,310.523,381.6,310.523,382.69z"/>
	<path d="M316.453,381.348c0-0.612-0.025-1.092-0.049-1.571h0.924l0.047,0.947h0.037c0.324-0.552,0.863-1.067,1.834-1.067
		c0.779,0,1.379,0.479,1.631,1.163h0.025c0.18-0.336,0.42-0.575,0.658-0.755c0.348-0.265,0.721-0.408,1.271-0.408
		c0.779,0,1.92,0.504,1.92,2.519v3.406h-1.031v-3.274c0-1.127-0.42-1.787-1.26-1.787c-0.611,0-1.068,0.444-1.26,0.948
		c-0.047,0.155-0.084,0.335-0.084,0.527v3.586h-1.031v-3.479c0-0.923-0.408-1.583-1.211-1.583c-0.648,0-1.139,0.528-1.307,1.056
		c-0.061,0.144-0.084,0.336-0.084,0.516v3.49h-1.031V381.348z"/>
</g>
</svg>
